<?xml version="1.0" encoding="UTF-8" standalone="no"?>
<!-- Created with Inkscape (http://www.inkscape.org/) -->

<svg
   width="484.67471"
   height="567.94275"
   viewBox="0 0 128.23685 150.26819"
   version="1.1"
   id="svg5"
   xml:space="preserve"
   xmlns:xlink="http://www.w3.org/1999/xlink"
   xmlns="http://www.w3.org/2000/svg"
   xmlns:svg="http://www.w3.org/2000/svg"><defs
     id="defs2"><linearGradient
       id="linearGradient3422"><stop
         style="stop-color:#000000;stop-opacity:1;"
         offset="0"
         id="stop3418" /><stop
         style="stop-color:#000000;stop-opacity:1;"
         offset="0"
         id="stop3941" /></linearGradient><linearGradient
       id="linearGradient2920"><stop
         style="stop-color:#000000;stop-opacity:1;"
         offset="0"
         id="stop2918" /></linearGradient><linearGradient
       xlink:href="#linearGradient3422"
       id="linearGradient3424"
       x1="18.539734"
       y1="146.15448"
       x2="199.95374"
       y2="146.15448"
       gradientUnits="userSpaceOnUse"
       gradientTransform="matrix(0.70687409,0,0,0.70687409,5.4344762,11.68509)" /></defs><g
     id="layer1"
     transform="translate(-18.539733,-39.863763)"><path
       style="fill:url(#linearGradient3424);fill-opacity:1;stroke:none;stroke-width:0.154346;stroke-opacity:1"
       d="m 68.39393,190.00434 c -0.185455,-0.0778 -0.411181,-0.27972 -0.501626,-0.44872 -0.109289,-0.20421 -0.164433,-2.61388 -0.164433,-7.18579 0,-6.67275 0.0093,-6.88778 0.308692,-7.18724 0.283662,-0.28366 0.514484,-0.30869 2.846653,-0.30869 3.167029,0 3.018494,-0.12574 3.018494,2.55533 0,1.02809 -0.0311,1.90037 -0.06913,1.93841 -0.03803,0.038 -0.33322,0.044 -0.655965,0.0134 l -0.586818,-0.0558 v -1.6469 -1.64689 l -1.659218,-0.0438 -1.659224,-0.0438 v 6.41581 6.41581 l 1.659224,-0.0438 1.659218,-0.0438 v -2.46954 -2.46954 l -0.810318,-0.0466 -0.810318,-0.0467 v -0.60932 -0.60932 h 1.46629 1.46629 v 3.45569 c 0,4.48935 0.216409,4.17234 -2.880003,4.21885 -1.259826,0.0189 -2.442328,-0.0293 -2.627783,-0.10706 z m 9.93963,0.0542 c -0.06058,-0.0606 -0.110159,-1.44792 -0.110159,-3.08296 v -2.97278 l -0.609665,-1.97915 c -1.239447,-4.02362 -2.014214,-6.6869 -2.014214,-6.92388 0,-0.19044 0.139968,-0.23325 0.641394,-0.19615 l 0.641396,0.0474 0.681073,2.46955 c 0.374594,1.35824 0.75439,2.74735 0.843994,3.08691 0.336154,1.27386 0.460811,1.62064 0.582584,1.62064 0.06885,0 0.246565,-0.46883 0.394853,-1.04184 0.466706,-1.80341 0.990316,-3.77686 1.330952,-5.01625 l 0.328753,-1.19618 h 0.673114 c 0.370211,0 0.673106,0.0686 0.673106,0.1525 0,0.0839 -0.204223,0.7958 -0.453834,1.58205 -0.249611,0.78625 -0.628312,2.05465 -0.841562,2.81866 -0.213242,0.76401 -0.580534,1.94476 -0.816206,2.62388 -0.404169,1.16469 -0.433059,1.42752 -0.508971,4.63039 l -0.08048,3.39561 -0.62299,0.0459 c -0.342636,0.0252 -0.672555,-0.004 -0.733141,-0.0643 z m 5.710885,7e-5 c -0.06065,-0.0606 -0.110244,-3.50198 -0.110244,-7.64747 v -7.53723 h 0.69456 c 0.382009,0 0.694561,0.0317 0.694561,0.0704 0,0.0387 0.271164,1.16739 0.602596,2.50812 0.331432,1.34074 0.824335,3.37536 1.095344,4.52138 0.623017,2.63456 0.630658,2.66191 0.719251,2.57332 0.04057,-0.0406 0.175326,-0.47993 0.299389,-0.97629 0.124057,-0.49636 0.391199,-1.45812 0.59364,-2.13725 0.202442,-0.67912 0.472383,-1.68623 0.599875,-2.23802 0.127492,-0.55178 0.419183,-1.74989 0.648203,-2.66246 l 0.416413,-1.65922 h 0.678189 0.678196 l -0.04008,7.60154 -0.04001,7.60155 h -0.617383 -0.617384 l -0.05429,-5.01625 -0.05429,-5.01625 -0.359064,1.38911 c -0.197486,0.76402 -0.501774,1.94476 -0.676189,2.62389 -0.506185,1.97092 -1.312142,4.36276 -1.480095,4.39247 -0.08489,0.015 -0.333065,-0.65458 -0.55151,-1.48802 -1.373923,-5.24207 -1.858478,-7.06372 -1.8864,-7.09179 -0.01739,-0.0175 -0.0316,2.27191 -0.0316,5.08753 v 5.11931 l -0.545728,0.0459 c -0.300153,0.0252 -0.595336,-0.004 -0.655972,-0.0643 z M 74.46723,167.58536 c -0.05577,-2.57031 -0.147581,-7.22578 -0.204004,-10.3455 l -0.102581,-5.67222 h 2.108553 c 1.896288,0 2.110917,0.0272 2.132059,0.27011 0.01294,0.14856 0.03966,0.33956 0.05938,0.42445 0.01972,0.0849 0.0439,0.94043 0.05365,1.90121 l 0.01781,1.74685 5.517873,-0.0533 c 5.385744,-0.052 5.543738,-0.0623 6.598295,-0.43065 2.012287,-0.70276 3.136923,-2.23878 3.393526,-4.63487 0.196228,-1.83237 -0.285189,-3.44688 -1.343323,-4.50501 l -0.58392,-0.58392 v -2.16085 c 0,-1.28152 0.06044,-2.16084 0.148557,-2.16084 0.244974,0 1.906368,0.64725 2.320985,0.90421 0.673842,0.41762 2.231885,2.07898 2.646806,2.82232 0.220049,0.39423 0.596142,1.26242 0.835758,1.92932 0.384985,1.07149 0.434855,1.41903 0.428698,2.98753 -0.0064,1.62919 -0.05252,1.90592 -0.561696,3.36917 -0.646783,1.85871 -1.246361,2.85909 -2.259396,3.76972 -0.977558,0.87875 -2.053823,1.44342 -3.509623,1.84134 -1.149695,0.31425 -1.507013,0.32883 -7.441914,0.30361 l -6.234241,-0.0265 0.06037,6.44566 0.06037,6.44566 -2.020303,0.0429 -2.020307,0.0429 z m -6.651996,-5.1178 c -0.05167,-0.85909 -0.162701,-4.09711 -0.24672,-7.19561 -0.328266,-12.1056 -0.475939,-17.00977 -0.592587,-19.67913 -0.0668,-1.52803 -0.111941,-2.79377 -0.100369,-2.81276 0.01159,-0.019 3.212029,-0.11177 7.112136,-0.20615 9.941022,-0.24058 11.169944,-0.12458 13.792722,1.30204 1.17011,0.63647 1.612754,0.9829 2.268069,1.77515 1.45175,1.75507 2.017836,3.79516 1.866367,6.72611 -0.229013,4.43161 -2.213901,6.93529 -6.514361,8.21703 -0.592459,0.17658 -2.235609,0.25945 -7.073604,0.35674 -3.466027,0.0697 -6.339407,0.16425 -6.385276,0.21012 -0.04588,0.0459 -0.0028,2.90865 0.09509,6.36173 0.09817,3.45308 0.158587,6.29507 0.134264,6.31555 -0.02432,0.0205 -0.99318,0.0719 -2.153004,0.1142 l -2.108776,0.077 z M 81.64125,147.39503 c 2.472469,-0.24689 3.481609,-0.65391 4.565926,-1.84162 0.678337,-0.74301 0.921488,-1.29543 1.126008,-2.55815 0.327714,-2.0234 -0.167515,-4.07006 -1.245746,-5.14829 -0.672901,-0.67289 -1.708302,-1.19516 -2.9123,-1.46901 -0.851677,-0.19371 -2.026148,-0.24492 -5.616637,-0.24492 -2.496875,0 -4.869752,0.0452 -5.273045,0.1005 l -0.733262,0.1005 0.09906,4.72281 c 0.0545,2.59755 0.138483,5.12218 0.186664,5.61031 l 0.08761,0.88749 h 4.058666 c 2.232256,0 4.777936,-0.0718 5.657061,-0.15962 z m -7.604485,-3.236 c -0.0106,-1.44314 -0.02799,-2.74543 -0.0386,-2.89399 -0.01803,-0.25264 0.397312,-0.27271 6.424655,-0.31039 l 6.443949,-0.0403 v 1.77667 1.77668 H 82.622257 78.37774 v 1.15759 1.1576 h -2.160844 -2.160848 z m 57.436025,-5.57706 c -0.80646,-0.16679 -2.36921,-0.47695 -3.47278,-0.68924 -4.82871,-0.92886 -8.50632,-1.67082 -9.86296,-1.98984 -3.20075,-0.75266 -4.09266,-2.49094 -3.0893,-6.02087 0.69134,-2.4322 1.16651,-4.12432 1.6037,-5.71081 0.63183,-2.29286 0.91855,-3.2155 1.07711,-3.46611 0.12413,-0.19618 0.2665,-0.19345 1.11669,0.0214 3.13683,0.79276 4.22957,1.09538 4.34356,1.20291 0.0703,0.0664 -0.008,0.59788 -0.17351,1.1812 -0.16577,0.58332 -0.62992,2.24133 -1.03145,3.68447 -0.40151,1.44314 -0.86683,3.05634 -1.03402,3.58489 -0.33023,1.04394 -0.28864,1.27578 0.22947,1.27933 0.27928,0.002 6.31351,1.21771 10.29239,2.07375 0.55118,0.11859 1.0241,0.19365 1.05094,0.1668 0.0269,-0.0269 0.17564,-0.55983 0.33065,-1.18443 0.24663,-0.99371 1.15903,-4.24189 1.77139,-6.30621 0.11332,-0.382 0.39456,-1.38912 0.62498,-2.23802 0.94151,-3.46874 1.64008,-5.852 1.76109,-6.00821 0.0705,-0.0911 0.21002,-0.51291 0.3099,-0.93736 0.0999,-0.42445 0.28195,-1.11901 0.40461,-1.54346 0.12265,-0.42445 0.64885,-2.29976 1.16932,-4.16735 0.52047,-1.86758 1.11244,-3.95484 1.31548,-4.63834 0.57084,-1.92165 0.60664,-1.84678 -1.05854,-2.21392 -3.64809,-0.80432 -10.20798,-2.02271 -10.30051,-1.91316 -0.0567,0.0671 -0.29479,0.8166 -0.52908,1.66551 -0.23428,0.8489 -0.597,2.02965 -0.80602,2.62388 -0.20903,0.59423 -0.5601,1.68816 -0.78016,2.43095 -0.22007,0.74279 -0.44525,1.35053 -0.50041,1.35053 -0.16134,0 -5.11928,-1.35322 -5.17984,-1.41378 -0.0606,-0.0606 0.0289,-0.42638 1.12644,-4.60572 0.41242,-1.57047 0.90384,-3.31739 1.09206,-3.88204 0.56702,-1.701085 1.47815,-2.618184 2.99105,-3.010619 1.3816,-0.358385 1.14821,-0.391559 10.98324,1.560955 2.79453,0.554784 5.53802,1.122054 6.09668,1.260584 1.67086,0.41435 2.51239,1.03207 3.23025,2.37114 0.41309,0.77056 0.25744,1.68899 -1.09896,6.48471 -1.21558,4.29785 -3.28104,11.68542 -4.68209,16.74655 -0.30549,1.10357 -0.82044,2.94415 -1.14434,4.09017 -0.32388,1.14602 -0.80896,2.88241 -1.07795,3.85865 -0.58022,2.10584 -0.9691,2.83273 -1.94196,3.62992 -1.25742,1.03037 -2.58505,1.20315 -5.15712,0.67117 z M 27.088966,137.00234 c -1.382738,-0.52036 -2.294987,-1.43914 -2.702118,-2.72146 -0.188234,-0.59288 -0.535274,-2.43156 -1.73334,-9.18359 -0.43682,-2.46182 -1.030828,-5.76097 -1.320017,-7.33144 -0.289189,-1.57047 -0.526027,-3.04061 -0.52631,-3.26699 -2.76e-4,-0.22637 -0.06305,-0.43474 -0.139445,-0.46304 -0.07641,-0.0283 -0.326682,-1.12801 -0.556162,-2.44381 -0.229486,-1.3158 -0.581283,-3.29529 -0.781774,-4.39886 -0.994261,-5.47274 -1.017284,-6.1378 -0.253252,-7.317077 0.295389,-0.455941 0.667431,-0.763467 1.267079,-1.047376 1.079072,-0.510886 2.359758,-0.687449 10.476114,-1.444278 1.814461,-0.169197 3.75922,-0.374205 4.321687,-0.455573 2.403959,-0.347775 4.460531,-0.07187 5.57588,0.748057 0.961094,0.70652 1.55725,2.214785 2.083716,5.271727 0.109643,0.63668 0.388816,2.21978 0.620367,3.518 0.231558,1.29824 0.390081,2.39135 0.35227,2.42916 -0.106017,0.10603 -5.027316,1.30711 -5.355695,1.30711 -0.215158,0 -0.315308,-0.14966 -0.387353,-0.5788 -0.133302,-0.79407 -0.807222,-4.56682 -1.151073,-6.44395 l -0.282729,-1.54347 -0.833744,0.0298 c -0.458556,0.0164 -1.945027,0.1428 -3.303272,0.28092 -1.358244,0.13811 -3.685012,0.3678 -5.170593,0.51042 -2.2181,0.21295 -2.694858,0.30071 -2.666378,0.49083 0.01908,0.12733 0.321889,1.86373 0.67293,3.85865 0.351033,1.99492 0.796039,4.53006 0.988902,5.63363 1.416025,8.10266 2.896643,16.36977 3.082205,17.20959 0.121914,0.55178 0.270117,1.37699 0.329339,1.83378 l 0.107671,0.83053 0.942094,-0.0894 c 0.518153,-0.0491 1.983934,-0.19364 3.25729,-0.32107 1.273356,-0.12744 3.530666,-0.349 5.016247,-0.49237 1.485581,-0.14336 2.75859,-0.31208 2.82891,-0.37492 0.07033,-0.0628 -0.116889,-1.59863 -0.416009,-3.41288 -0.663006,-4.02125 -0.925532,-5.84517 -0.849628,-5.90279 0.07126,-0.0541 3.135524,-0.82726 4.351743,-1.09802 0.664596,-0.14796 0.913791,-0.15419 0.956415,-0.024 0.03174,0.0969 0.239892,1.218 0.462642,2.49135 0.22275,1.27336 0.643199,3.60474 0.934325,5.18087 0.748559,4.05256 0.694921,5.02032 -0.341844,6.16789 -0.998764,1.10551 -1.795771,1.27013 -9.701536,2.00385 -1.018683,0.0945 -2.68562,0.27099 -3.704303,0.39209 -2.984663,0.35484 -5.760897,0.42664 -6.451251,0.16685 z m 104.525204,-5.40976 c -0.065,-0.065 -1.98187,-0.48087 -6.23805,-1.35345 -1.27335,-0.26106 -2.33909,-0.49527 -2.36832,-0.52047 -0.0837,-0.0721 3.16095,-11.43441 4.29478,-15.03973 0.4138,-1.3158 0.85817,-2.77437 0.9875,-3.24127 0.12931,-0.46689 0.43938,-1.54346 0.68902,-2.39236 0.24965,-0.8489 0.61767,-2.15085 0.81783,-2.89322 0.33428,-1.23982 0.39535,-1.34975 0.74979,-1.3497 0.52299,6e-5 3.86339,0.56958 4.92805,0.8402 0.47296,0.12022 1.43294,0.30054 2.13328,0.40071 1.04111,0.1489 1.27335,0.23144 1.27335,0.45255 0,0.35871 -1.66015,6.27884 -1.92684,6.87115 -0.11467,0.25467 -0.32399,0.9145 -0.46517,1.46628 -0.27009,1.05571 -2.11754,7.71983 -3.55142,12.81073 -0.46624,1.65536 -0.89114,3.23548 -0.94422,3.51137 -0.0884,0.45969 -0.21329,0.6035 -0.37958,0.43721 z m -100.847105,-2.7524 c -0.142181,-0.78524 -0.357403,-1.77498 -0.478264,-2.19943 -0.120854,-0.42445 -0.461963,-2.19557 -0.758016,-3.93583 -0.548839,-3.22622 -1.57411,-9.05641 -2.008548,-11.4216 -0.132539,-0.72157 -0.374261,-2.07596 -0.537175,-3.00975 -0.162906,-0.9338 -0.36949,-2.07193 -0.459065,-2.52919 -0.311583,-1.5905 -0.370628,-1.51884 1.342001,-1.62878 0.827679,-0.0532 2.778114,-0.19912 4.33429,-0.32442 1.556183,-0.12529 2.888782,-0.19112 2.961343,-0.14627 0.07255,0.0448 0.127697,0.20171 0.12253,0.34859 -0.0099,0.28152 0.420816,2.72372 1.027059,5.82353 0.515707,2.63686 0.864408,4.51015 2.011163,10.80422 0.88454,4.85492 1.283662,6.93856 1.571212,8.20271 0.06779,0.29814 -0.0064,0.34081 -0.747675,0.42925 -2.026128,0.24174 -3.450253,0.4226 -5.575356,0.70805 -1.255571,0.16864 -2.342277,0.30662 -2.414916,0.30662 -0.07264,0 -0.248402,-0.64246 -0.390583,-1.4277 z m 52.009545,0.24593 c -0.509345,-0.12324 -1.690094,-0.24134 -2.623881,-0.26245 -1.065408,-0.0241 -1.870283,-0.1196 -2.160851,-0.25642 -0.477797,-0.22499 -1.311937,-0.98377 -1.311937,-1.19343 0,-0.0653 -0.40805,-0.12421 -0.906782,-0.13099 -0.740288,-0.01 -1.095867,-0.11625 -1.936644,-0.5784 -0.723069,-0.39745 -1.140188,-0.53839 -1.400212,-0.47314 -0.435533,0.10932 -1.421623,-0.17811 -1.834444,-0.5347 -0.159563,-0.13783 -0.417551,-0.54578 -0.57331,-0.90657 -0.206606,-0.47854 -0.372368,-0.65597 -0.612818,-0.65597 -0.506602,0 -1.291855,-0.90245 -1.678783,-1.92932 -0.500418,-1.3281 -1.068328,-3.63657 -1.28374,-5.21824 l -0.185696,-1.36352 -0.929045,0.0995 c -4.182037,0.4477 -8.34527,1.09703 -12.350645,1.9263 -4.14487,0.85816 -5.711755,1.19137 -8.816579,1.87493 -1.877953,0.41346 -3.557577,0.75174 -3.732493,0.75174 -0.174909,0 -0.355827,-0.12155 -0.402028,-0.2701 -0.165359,-0.5317 -0.846178,-4.15231 -1.011523,-5.37933 -0.09269,-0.68781 -0.236067,-1.4861 -0.31863,-1.77396 -0.262632,-0.91575 -0.214996,-0.998 0.737383,-1.2734 4.350569,-1.25805 8.352205,-2.06337 16.86036,-3.39311 l 1.155641,-0.18061 -1.92759,-2.08368 c -2.306812,-2.4936 -2.752673,-3.05532 -3.307796,-4.16734 -0.848545,-1.69981 -1.041451,-3.724258 -0.625067,-6.559706 0.283032,-1.92737 0.615574,-3.162873 1.537098,-5.710808 2.454514,-6.7865 2.901894,-8.523734 2.881727,-11.190089 -0.01364,-1.798664 -0.03824,-1.905732 -0.938368,-4.074833 -0.699763,-1.686318 -1.440928,-4.339914 -1.699389,-6.084318 -0.751032,-5.068955 1.011756,-11.290426 4.805493,-16.960199 0.409244,-0.611623 0.744084,-1.180692 0.744084,-1.264605 0,-0.08391 0.127887,-0.24332 0.284205,-0.35425 0.156311,-0.110922 0.616649,-0.618416 1.022974,-1.127761 1.613229,-2.022225 4.03411,-4.14388 6.131709,-5.373819 1.482386,-0.869201 2.034087,-1.119866 4.059896,-1.844581 2.27858,-0.815146 2.981107,-0.976745 5.205202,-1.197367 1.605223,-0.159231 2.401729,-0.148005 5.213151,0.07349 1.825142,0.143785 3.874087,0.327296 4.553209,0.407795 0.679122,0.08051 1.755685,0.179737 2.392366,0.22051 6.516255,0.417338 7.150222,0.51365 9.658035,1.467301 2.807898,1.067754 4.450048,2.407669 6.897868,5.628322 0.78009,1.026374 1.33194,1.83086 2.27955,3.323065 0.61868,0.974228 1.18188,1.809371 1.25156,1.855869 0.28102,0.18752 2.17371,4.164012 2.53101,5.317567 0.21035,0.679122 0.49288,2.068235 0.62785,3.086926 0.37047,2.79612 0.10698,4.917731 -1.02909,8.286295 -0.33458,0.992072 -0.61053,2.068635 -0.61323,2.392364 -0.006,0.73694 -0.34289,3.085823 -0.704,4.910291 -0.19031,0.96153 -0.27628,2.12551 -0.2793,3.781479 -0.005,2.908944 0.0838,3.232013 1.97167,7.149976 2.48538,5.158004 2.90942,7.007851 2.32858,10.158318 -0.77964,4.228638 -3.04576,7.919528 -6.14651,10.010958 l -1.02975,0.69456 0.58157,0.0988 c 0.31987,0.0544 0.99832,0.13696 1.50765,0.18359 3.84871,0.35232 11.97755,1.6786 15.8251,2.58198 1.06367,0.24974 2.06152,0.45408 2.21743,0.45408 0.19602,0 0.26006,0.0833 0.20755,0.2701 -0.0418,0.14856 -0.29108,1.06885 -0.55403,2.04509 -0.26295,0.97624 -0.71196,2.60845 -0.99781,3.62713 -0.60579,2.15882 -0.40235,2.05575 -2.76845,1.40257 -0.82766,-0.22848 -1.93895,-0.50887 -2.46953,-0.62309 -0.5306,-0.11421 -2.07602,-0.45317 -3.43426,-0.75325 -4.66637,-1.03092 -10.18311,-2.01939 -14.81722,-2.6549 -1.018682,-0.13969 -1.921608,-0.3103 -2.006496,-0.37913 -0.233552,-0.18935 -1.856464,-0.25905 -1.827517,-0.0785 0.01357,0.0845 0.09638,0.54425 0.18407,1.02159 0.10302,0.56081 0.109311,1.22179 0.01774,1.86814 -0.180444,1.27416 -0.240372,1.42508 -0.936191,2.35739 -0.316778,0.42446 -0.802344,1.24753 -1.079029,1.82906 -0.276692,0.58153 -0.629874,1.13652 -0.784864,1.23331 -0.154989,0.0968 -0.281795,0.28455 -0.281795,0.41724 0,0.1327 -0.175941,0.59433 -0.390979,1.02585 -0.642259,1.28885 -2.079093,2.04809 -2.205058,1.16519 -0.07151,-0.50123 -0.282333,-0.42382 -0.396196,0.14549 -0.228745,1.14373 -2.079037,2.26826 -3.443721,2.09294 -0.502043,-0.0645 -0.664822,-0.003 -1.127005,0.42477 -0.939216,0.86955 -1.972143,1.03182 -3.781479,0.59405 z m 2.400459,-0.97877 c 0.301567,-0.0838 0.769956,-0.36902 1.040858,-0.63388 0.42281,-0.41337 0.567649,-0.46747 1.022883,-0.38207 0.291677,0.0547 0.849507,0.0191 1.239616,-0.0791 0.871202,-0.21938 1.779111,-1.17817 2.185323,-2.30782 0.367977,-1.02329 0.71313,-1.01977 1.156905,0.0118 0.313541,0.72886 0.350942,0.7613 0.608683,0.52805 0.151044,-0.13668 0.427821,-0.626 0.615079,-1.08736 0.452435,-1.11473 0.385451,-3.18477 -0.135628,-4.19166 -0.186714,-0.36079 -0.397249,-0.65598 -0.467859,-0.65598 -0.394923,0 -1.227232,0.79345 -1.596333,1.52178 l -0.41905,0.8269 0.314058,0.6156 c 0.172731,0.33858 0.274479,0.65517 0.226114,0.70354 -0.102687,0.10269 -0.05973,0.14933 -0.676612,-0.73524 -0.78726,-1.12893 -1.06034,-1.38911 -1.457999,-1.38911 -0.638512,0 -1.585349,0.82066 -2.029124,1.75873 -0.354088,0.74848 -0.385289,0.93642 -0.251648,1.51576 0.0839,0.36373 0.146196,1.07807 0.138421,1.58741 -0.0078,0.50934 -0.04149,0.78716 -0.07491,0.61739 -0.3277,-1.6641 -0.462444,-2.12338 -0.847358,-2.88819 -0.244056,-0.48492 -0.59029,-0.9601 -0.769397,-1.05596 -0.719096,-0.38485 -2.151181,0.27465 -2.755982,1.26916 -0.229225,0.37694 -0.262434,0.68617 -0.196971,1.83428 0.04984,0.87395 0.02184,1.38091 -0.07628,1.38091 -0.08526,0 -0.18947,-0.48154 -0.231586,-1.07011 -0.09733,-1.36032 -0.592975,-2.38857 -1.469188,-3.0479 -0.552874,-0.41603 -0.745985,-0.47918 -1.234768,-0.40381 -1.376036,0.21217 -1.891333,0.90509 -1.891333,2.54328 0,0.57159 -0.05803,0.88045 -0.154346,0.82094 -0.08489,-0.0524 -0.154346,-0.50071 -0.154346,-0.99609 0,-0.87936 -0.432876,-2.59162 -0.869997,-3.44136 -0.192637,-0.37446 -0.306302,-0.42445 -0.965074,-0.42445 -0.959115,0 -1.470425,0.47649 -1.80583,1.68282 -0.1321,0.47514 -0.270245,0.93335 -0.306974,1.01824 -0.09028,0.20862 0.06143,-1.59811 0.175121,-2.08566 0.0685,-0.29357 -0.0468,-0.56763 -0.474228,-1.12739 -0.310572,-0.40674 -0.642909,-0.71344 -0.738527,-0.68157 -0.287196,0.0957 -0.876602,1.42928 -1.053412,2.38337 -0.09111,0.49163 -0.136378,1.30097 -0.100603,1.79854 0.08369,1.16409 0.45235,1.50315 1.586318,1.45894 0.608251,-0.0237 0.983332,0.0784 1.770648,0.48189 0.92462,0.47389 1.076725,0.50544 2.045086,0.42426 0.846465,-0.071 1.046164,-0.0455 1.046164,0.13366 0,0.25967 0.577657,0.96084 0.962451,1.16824 0.559159,0.30137 1.731835,0.41675 2.629183,0.25869 0.727183,-0.12809 1.025123,-0.1124 1.548394,0.0815 1.114691,0.41311 2.040971,0.49601 2.894062,0.25902 z m -2.792711,-5.5994 c 0.408206,-0.49947 1.414964,-1.02889 1.967033,-1.03439 0.579312,-0.006 1.057067,0.30494 1.485991,0.96644 0.226609,0.34948 0.412015,0.53148 0.412015,0.40444 0,-0.38529 0.995145,-1.83684 1.477106,-2.15456 0.67264,-0.4434 1.684424,-0.40207 2.138004,0.0874 l 0.359099,0.38747 0.198356,-0.50324 c 0.366981,-0.93105 1.41126,-1.81517 2.143992,-1.81517 0.18993,0 0.404841,-0.17878 0.548223,-0.45605 0.129704,-0.25082 0.513494,-0.67918 0.852865,-0.95191 0.404247,-0.32485 0.617044,-0.62101 0.617044,-0.85873 0,-0.4927 0.738401,-1.87196 1.108089,-2.06982 0.295283,-0.15803 0.295332,-0.16696 0.0035,-0.66097 -0.454258,-0.76991 -0.700795,-2.02264 -0.587596,-2.98577 0.107184,-0.91197 0.609135,-2.23609 0.95715,-2.52492 0.291614,-0.24202 0.125958,-0.4504 -0.358046,-0.4504 -0.690983,0 -1.6779,0.69859 -2.038102,1.44267 -0.684968,1.41494 -0.663988,4.23324 0.04199,5.63876 0.422428,0.84104 0.358781,1.0116 -0.165296,0.44294 -0.525228,-0.56992 -0.814184,-1.69852 -0.814184,-3.18007 0,-1.59483 0.307568,-2.77634 0.950095,-3.64975 l 0.454181,-0.61738 -0.354858,-0.0544 c -0.594644,-0.0912 -1.896925,0.27446 -2.627663,0.73788 -0.753584,0.47791 -1.441133,1.61978 -1.609821,2.67359 -0.05097,0.31833 -0.153229,0.57879 -0.227274,0.57879 -0.243822,0 -0.133826,-1.60744 0.153236,-2.23934 0.835617,-1.83938 4.130004,-3.16382 6.780767,-2.72606 0.601706,0.0994 1.672401,0.18068 2.379324,0.18068 1.275661,0 2.970172,0.35247 4.142692,0.86171 0.51104,0.22195 0.60425,0.21616 1.3681,-0.0849 1.14115,-0.44979 2.07437,-1.12355 3.31187,-2.39108 1.70678,-1.74819 2.58206,-3.18073 3.49314,-5.717143 0.43152,-1.201333 0.50951,-1.650481 0.57695,-3.322584 0.0988,-2.449298 -0.17229,-3.592306 -1.6462,-6.941426 -1.19317,-2.71123 -1.86427,-4.373663 -1.86427,-4.618122 0,-0.09164 -0.0594,-0.16661 -0.13203,-0.16661 -0.25877,0 -0.63732,-2.422662 -0.6632,-4.244516 -0.0308,-2.167609 0.20246,-3.931308 0.65324,-4.939074 0.22006,-0.491995 0.60973,-2.130422 0.52647,-2.213679 -0.0417,-0.04169 -0.0758,0.0052 -0.0758,0.104282 0,0.09904 -0.13085,0.310918 -0.29077,0.470842 -0.78218,0.782181 -1.51743,2.120037 -1.62149,2.950497 -0.15444,1.232359 -0.74209,2.346532 -1.50331,2.85029 -0.6314,0.417843 -0.63313,0.421652 -0.53274,1.178417 0.0554,0.417571 0.26219,1.316708 0.45954,1.998078 0.21504,0.742465 0.29014,1.216085 0.18741,1.18202 -0.0943,-0.03124 -0.28849,-0.48881 -0.43156,-1.016782 -0.14307,-0.527964 -0.40353,-1.256157 -0.57879,-1.61821 -0.17527,-0.362053 -0.31867,-0.918681 -0.31867,-1.236952 0,-0.489303 0.1162,-0.691855 0.75238,-1.311523 0.83513,-0.813436 1.25412,-1.876391 1.25412,-3.181639 0,-0.5785 0.20605,-1.144209 1.03138,-2.831649 0.56725,-1.159796 1.11209,-2.212904 1.21073,-2.340239 0.25202,-0.325309 0.89742,-2.151844 1.30892,-3.704306 0.49637,-1.872661 0.50095,-5.051199 0.0101,-7.022749 -0.39719,-1.595436 -0.7827,-2.578408 -1.48303,-3.781479 -0.4231,-0.726829 -2.59066,-4.349481 -3.536,-5.909757 -0.66802,-1.102547 -2.22875,-3.027047 -3.32346,-4.098103 -0.934361,-0.914151 -1.462297,-1.280679 -2.704458,-1.877627 -2.624009,-1.261028 -3.719749,-1.521073 -7.177091,-1.70327 -3.482125,-0.183511 -5.673817,-0.347881 -9.337934,-0.700314 -2.991611,-0.287747 -6.215428,-0.225408 -8.18034,0.15817 -4.176792,0.815386 -7.800278,2.807266 -10.928867,6.007758 -1.250588,1.279322 -1.607361,1.72413 -2.708643,3.377006 -0.212104,0.318334 -0.43202,0.578796 -0.488704,0.578796 -0.239482,0 -2.467514,3.969557 -3.162046,5.633631 -0.376849,0.902925 -0.968446,2.754766 -1.331305,4.167348 -0.460317,1.791969 -0.574965,5.962266 -0.216403,7.871646 0.143475,0.764013 0.383748,1.771122 0.533945,2.238018 0.150196,0.466897 0.35724,1.148071 0.46009,1.51372 0.10285,0.365649 0.327297,0.805118 0.498777,0.976597 0.171481,0.171478 0.274939,0.407784 0.229918,0.525121 -0.04503,0.117337 0.01336,0.511336 0.129726,0.875556 0.264498,0.827797 0.428613,2.127725 0.228737,1.81179 -0.09298,-0.146967 -0.145842,0.199316 -0.154395,1.01127 -0.01364,1.295826 -0.03372,1.515022 -0.288857,3.153487 -0.162355,1.042638 -0.379556,1.811668 -1.6377,5.798586 -1.596603,5.059423 -2.078168,7.400887 -2.078168,10.104426 0,1.749973 0.293148,3.020511 0.946794,4.103591 0.258872,0.42894 1.245682,1.57876 2.192894,2.55514 0.947218,0.97638 2.000036,2.16748 2.339597,2.64688 0.572604,0.80843 0.662172,0.872 1.234768,0.87639 0.887897,0.007 2.374051,-0.33904 4.321694,-1.00569 1.505097,-0.51516 1.872997,-0.58211 3.241265,-0.5898 2.2038,-0.0124 4.495436,0.21802 5.46683,0.54964 1.064906,0.36354 2.238712,1.1149 2.65492,1.69941 0.479119,0.67286 0.214663,0.72956 -0.445868,0.0956 -0.704647,-0.67631 -2.027654,-1.35646 -2.638535,-1.35646 -0.442333,0 -0.429581,0.0228 0.584281,1.04183 0.793601,0.7977 1.083553,1.21238 1.237362,1.76964 0.217795,0.78908 0.147609,1.20153 -0.204477,1.20153 -0.122975,0 -0.634045,-0.53829 -1.135721,-1.19618 -0.822314,-1.07839 -2.141899,-2.30934 -2.302953,-2.14828 -0.03464,0.0346 0.113142,0.58787 0.32847,1.22933 0.463455,1.38059 0.523765,3.12217 0.153611,4.43526 -0.13085,0.46418 -0.308473,1.12178 -0.394719,1.46134 -0.08625,0.33957 -0.230087,0.68685 -0.319648,0.77173 -0.112478,0.10661 -0.135027,0.0589 -0.07291,-0.15434 0.804677,-2.76198 0.7378,-5.01656 -0.203431,-6.85773 -0.434368,-0.8497 -0.869731,-1.21458 -1.341556,-1.12439 -0.433773,0.0829 -0.44509,0.14903 -0.0923,0.53932 0.424845,0.47001 0.385055,3.41887 -0.06298,4.66457 -0.183179,0.50934 -0.379718,1.46022 -0.436756,2.11306 -0.117928,1.34978 0.04701,3.98361 0.249505,3.98361 0.07394,0 0.134441,-0.0881 0.134441,-0.19569 0,-0.10763 0.176139,-0.45491 0.391431,-0.77173 0.283153,-0.4167 0.502263,-0.57604 0.792095,-0.57604 0.567585,0 1.325601,0.51237 1.825757,1.2341 0.272196,0.39278 0.547813,0.61805 0.756178,0.61805 0.338176,0 0.886732,0.43551 1.449142,1.1505 l 0.322009,0.40936 0.621159,-0.31689 c 0.760815,-0.38815 1.43506,-0.40624 1.743349,-0.0468 0.312337,0.36417 0.896604,1.61979 0.896604,1.92685 0,0.64702 0.166122,0.69298 0.672944,0.18616 1.137989,-1.13799 2.692688,-1.01655 3.647194,0.28489 0.463646,0.63216 0.564015,0.70151 0.696109,0.48095 0.08489,-0.14175 0.325112,-0.46667 0.533824,-0.72205 z m -0.612619,-0.89116 c -7.07e-4,-0.0382 -0.17112,-0.90054 -0.378284,-1.91632 -0.207163,-1.01578 -0.352589,-1.87094 -0.323176,-1.90036 0.118557,-0.11855 0.538674,0.95085 0.640619,1.6307 l 0.10876,0.72526 0.270266,-0.82904 c 0.264307,-0.81078 0.962805,-1.72236 1.1649,-1.52027 0.05591,0.0559 -0.123243,0.45226 -0.398175,0.88071 -0.351783,0.5482 -0.53229,1.05382 -0.609255,1.70656 -0.06015,0.51015 -0.191414,1.00961 -0.291698,1.10989 -0.100284,0.10028 -0.183066,0.15107 -0.183957,0.11287 z m 4.502357,-0.5532 c -0.01357,-0.18117 -0.302521,-0.88448 -0.642082,-1.5629 -0.667989,-1.3346 -0.697459,-1.42613 -0.459143,-1.42613 0.277759,0 1.250884,2.34078 1.185569,2.85181 -0.03591,0.2809 -0.06949,0.33551 -0.08434,0.13722 z m -8.418963,-0.94395 c 0.184509,-0.77802 0.475246,-1.34642 0.907916,-1.77498 0.235686,-0.23345 0.490953,-0.42445 0.567253,-0.42445 0.192354,0 -0.09083,0.48427 -0.468007,0.80034 -0.170732,0.14306 -0.435357,0.61189 -0.588056,1.04183 -0.293091,0.82522 -0.59012,1.07842 -0.419106,0.35726 z m 13.50307,-3.20386 c -0.352723,-0.38266 -0.710479,-0.87766 -0.795007,-1.1 -0.241023,-0.63393 -0.333921,-2.51123 -0.174648,-3.5292 0.138654,-0.8862 0.14585,-0.84965 0.167105,0.8489 0.02573,2.05512 0.224362,2.6507 1.258187,3.77227 0.405717,0.44015 0.561993,0.70377 0.417197,0.70377 -0.127337,0 -0.520111,-0.31309 -0.872834,-0.69574 z m -19.828346,0.19411 c 0.06376,-0.10611 0.347337,-0.52451 0.6302,-0.92977 0.738619,-1.05821 1.124269,-2.14162 1.124269,-3.1584 0,-0.62753 0.04715,-0.82689 0.167211,-0.70684 0.380892,0.38089 0.118111,2.20876 -0.450823,3.13579 -0.463095,0.75459 -1.325326,1.85216 -1.455016,1.85216 -0.07246,0 -0.07959,-0.0868 -0.01583,-0.19294 z m 12.017783,-0.58731 c -0.444009,-0.12928 -1.61737,-1.09968 -1.622297,-1.34168 -0.0014,-0.0638 -0.06715,-0.21861 -0.146422,-0.3439 -0.117589,-0.18595 -0.237715,-0.12289 -0.653611,0.34312 -0.504412,0.56518 -2.214842,1.35098 -2.940653,1.35098 -0.966587,0 -1.974724,-1.39291 -2.194474,-3.03202 -0.09094,-0.67831 -0.05309,-0.88071 0.259865,-1.38911 0.201474,-0.32732 0.73727,-1.35914 1.190659,-2.29293 0.453389,-0.9338 1.027166,-2.00215 1.27506,-2.37411 0.247886,-0.37197 0.722842,-1.21755 1.055448,-1.87907 0.332605,-0.66152 0.670498,-1.24341 0.750869,-1.29308 0.135798,-0.0839 0.453255,0.24872 0.894917,0.93774 0.146521,0.22858 0.185703,-0.23816 0.192934,-2.29847 l 0.009,-2.58529 h -0.845159 c -0.762923,0 -0.89115,0.0505 -1.317826,0.51942 -0.259967,0.28568 -0.765198,0.64329 -1.122749,0.79468 -2.460605,1.04189 -3.881054,1.81859 -4.641941,2.5382 -0.452484,0.42794 -0.951869,0.77808 -1.109742,0.77808 -0.3672,0 -2.713273,-0.37149 -5.856975,-0.92741 -1.358245,-0.24019 -3.164096,-0.51368 -4.012995,-0.60778 -2.170825,-0.24059 -2.124786,-0.22146 -2.702323,-1.123 -0.287012,-0.44803 -0.568673,-0.84932 -0.625909,-0.89177 -0.287231,-0.213 -0.956613,-1.848696 -1.307159,-3.194182 -0.629457,-2.41601 -0.673955,-4.432312 -0.159824,-7.242017 0.231212,-1.263544 0.530241,-2.609906 0.664518,-2.991915 0.303037,-0.862104 1.084593,-1.627676 1.798366,-1.76158 0.942461,-0.176803 3.889348,0.399455 4.493174,0.878638 0.08489,0.06736 0.447239,0.332634 0.805215,0.58949 0.788914,0.566051 2.000969,2.147215 2.768727,3.611894 0.311484,0.594233 0.607155,1.11515 0.657046,1.157598 0.09965,0.08479 0.401321,0.652961 1.640513,3.089846 1.04353,2.052097 2.185075,3.352788 3.518834,4.009389 1.03668,0.510359 1.341604,0.540629 4.886674,0.485029 2.007798,-0.0315 2.416796,-0.111629 2.516564,-0.493165 0.09806,-0.374989 0.356505,-0.389749 0.451678,-0.0258 0.08885,0.339745 0.650706,0.400607 0.902092,0.09772 0.250862,-0.302281 0.07919,-1.969839 -0.624015,-6.061318 -0.180366,-1.049426 -0.30356,-1.981164 -0.273765,-2.070541 0.121102,-0.363319 0.850037,2.848392 1.498502,6.602466 0.102653,0.594234 0.214261,1.227621 0.248028,1.407528 0.0516,0.274938 0.208846,0.343781 0.986033,0.431709 0.508554,0.05754 1.276184,0.209011 1.70585,0.336601 0.728342,0.2163 0.861778,0.21004 1.971479,-0.0924 1.235086,-0.336637 2.738953,-1.135448 4.200005,-2.230912 0.466898,-0.350072 1.030163,-0.750495 1.251705,-0.889834 0.221534,-0.139339 0.499357,-0.349485 0.617384,-0.466996 0.538009,-0.535684 2.603367,-1.521992 3.841719,-1.834621 3.794551,-0.957956 5.315121,-0.763339 7.235881,0.926132 0.31756,0.279328 0.35347,0.410814 0.26435,0.968107 -0.25052,1.566694 -1.66548,4.200844 -3.00034,5.585584 -1.19132,1.23582 -1.18287,1.23381 -4.719729,1.12091 -1.948633,-0.0622 -3.442293,-0.0383 -4.024679,0.0643 -0.509346,0.0898 -1.700096,0.20414 -2.646127,0.25418 -1.609199,0.0851 -1.773328,0.0663 -2.546712,-0.29223 -0.454661,-0.21077 -1.271157,-0.79223 -1.81444,-1.29215 -1.989822,-1.83099 -2.201064,-1.72315 -0.526522,0.2688 1.221542,1.45307 1.947085,2.00367 3.038809,2.3061 0.406891,0.11271 0.548033,0.21618 0.440956,0.32325 -0.107078,0.10708 -0.434466,0.1 -1.022861,-0.0222 -1.234485,-0.25627 -2.068879,-0.94699 -3.798,-3.14401 -0.446348,-0.56712 -2.033846,-1.48979 -2.563273,-1.48979 h -0.508914 l -0.04595,2.43094 c -0.02531,1.33703 -0.02417,2.69517 0.0021,3.0181 l 0.04842,0.58712 0.270705,-0.35561 c 0.148882,-0.19558 0.364478,-0.59871 0.479091,-0.89583 0.460761,-1.19444 0.697211,-1.20428 0.927411,-0.0386 0.381345,1.93105 0.600066,2.35621 1.878964,3.65239 1.366097,1.38457 1.58696,1.87806 1.560262,3.48611 -0.0169,1.01779 -0.563542,2.91264 -1.057936,3.66718 -0.454294,0.69334 -1.647484,0.97191 -2.766882,0.646 z m 8.480644,-11.79405 c -0.284361,-0.21508 -0.275278,-0.22686 0.178592,-0.23152 0.263013,-0.003 1.110987,-0.13737 1.884399,-0.29925 1.225854,-0.2566 1.837653,-0.28343 4.770432,-0.20914 3.998063,0.10125 3.945033,0.11719 5.754873,-1.72967 0.63667,-0.6497 1.2844,-1.25176 1.43938,-1.3379 0.57127,-0.31752 -0.0499,0.48381 -1.56704,2.02152 -2.14892,2.17804 -1.89005,2.09724 -5.663094,1.76775 -2.943205,-0.25702 -3.20513,-0.25786 -4.445475,-0.0141 -1.6152,0.31735 -1.968821,0.32222 -2.352067,0.0324 z M 75.93774,93.583508 c -0.677206,-0.33373 -1.471938,-1.325651 -1.868784,-2.332473 -0.356738,-0.905046 -0.390025,-1.113128 -0.178069,-1.113128 0.07893,0 0.304472,0.322278 0.501188,0.716169 0.513078,1.027336 1.401258,1.974066 2.207544,2.353064 0.383741,0.18038 0.697706,0.397058 0.697706,0.481515 0,0.236535 -0.790271,0.175418 -1.359585,-0.105147 z m -3.039975,-2.789629 c -0.255705,-2.267561 -1.1854,-4.2469 -2.682354,-5.710808 -0.54254,-0.530565 -1.050995,-0.964664 -1.129903,-0.964664 -0.07891,0 -0.364563,-0.167628 -0.634794,-0.372501 -0.601409,-0.455969 -2.887546,-1.78193 -4.349976,-2.522987 -0.594234,-0.301115 -1.005267,-0.573456 -0.913402,-0.605202 0.215653,-0.07452 3.293878,1.285899 4.650398,2.055246 0.57625,0.326823 1.256101,0.697472 1.510773,0.823671 0.254666,0.126191 0.956733,0.721237 1.560142,1.322314 1.101176,1.096927 1.719931,2.131918 2.283423,3.819474 0.322341,0.965363 0.340225,3.042944 0.02615,3.042944 -0.15383,0 -0.250651,-0.268103 -0.320497,-0.887487 z m 9.48378,-17.286764 c -0.0049,-2.949939 -0.0639,-5.695915 -0.130715,-6.102167 -0.0668,-0.406253 -0.07155,-0.769518 -0.01046,-0.807253 0.125767,-0.07773 0.221831,0.406003 0.530954,2.673709 0.221733,1.626597 0.335935,8.852695 0.147666,9.343318 -0.05401,0.140756 -0.194955,0.25592 -0.313208,0.25592 -0.179476,0 -0.21653,-0.886333 -0.224207,-5.363527 z M 70.502903,121.39299 c 0.07594,-0.33956 0.222482,-0.89843 0.32565,-1.24192 0.153116,-0.50979 0.147815,-0.70698 -0.02884,-1.07336 -0.240344,-0.49845 -1.470991,-1.50731 -1.741385,-1.42756 -0.278331,0.0821 -1.011395,1.69143 -1.016795,2.23225 -0.0028,0.27275 0.142145,0.86312 0.321938,1.31193 0.179794,0.44883 0.391425,1.04177 0.470298,1.31766 0.132185,0.46242 0.437576,0.70479 0.437576,0.34728 0,-0.27515 0.454937,-0.16324 0.654664,0.16103 0.179674,0.29173 0.20341,0.26569 0.316531,-0.34728 0.0673,-0.36445 0.184431,-0.94047 0.260378,-1.28003 z m 23.899305,0.95924 c 0.09054,-0.1091 0.310049,-0.72844 0.487792,-1.37633 l 0.323169,-1.17796 -0.313258,-0.89128 c -0.397751,-1.13168 -0.500439,-1.22922 -0.970093,-0.9215 -0.71301,0.46718 -0.775879,0.88673 -0.33134,2.21099 0.268237,0.79908 0.373795,1.38117 0.321345,1.77218 -0.08143,0.6071 0.146563,0.78854 0.482385,0.3839 z m 1.845952,-4.69497 c 0.120253,-0.90964 0.02877,-2.10869 -0.176599,-2.31403 -0.217971,-0.21797 -0.641014,0.22369 -0.913111,0.9533 -0.266174,0.71373 -0.26541,0.75557 0.02509,1.37284 0.164807,0.35018 0.348892,0.87574 0.409061,1.16791 l 0.10941,0.53123 0.213921,-0.40829 c 0.117659,-0.22456 0.267149,-0.81089 0.332203,-1.30296 z"
       id="path2602" /><path
       style="fill:#000000;fill-opacity:1;stroke:none;stroke-width:0.525006;stroke-dasharray:none;stroke-opacity:1"
       d="m 83.660671,116.5086 c -0.575904,-0.16551 -1.533237,-0.98109 -1.764031,-1.50283 -0.07879,-0.17813 -0.17623,-0.32387 -0.216521,-0.32387 -0.04029,0 -0.280552,0.18786 -0.533914,0.41746 -0.85721,0.77684 -2.602523,1.51904 -3.190388,1.35673 -0.985594,-0.27214 -1.924188,-1.88566 -1.949154,-3.35077 -0.0074,-0.43495 0.01418,-0.49827 0.417862,-1.22598 0.23412,-0.42203 0.761563,-1.43537 1.172093,-2.25185 0.41053,-0.81648 0.911359,-1.7549 1.112953,-2.08538 0.201595,-0.33048 0.667913,-1.15757 1.036263,-1.83797 0.368352,-0.6804 0.701896,-1.27619 0.741211,-1.32397 0.112512,-0.13675 0.302533,0.006 0.634983,0.47758 0.163776,0.23223 0.319921,0.42224 0.346988,0.42224 0.113752,0 0.137317,-0.34081 0.182028,-2.63243 l 0.047,-2.40879 -0.817754,0.0403 c -0.449766,0.0221 -0.889179,0.0785 -0.976475,0.12522 -0.0873,0.0467 -0.363553,0.2755 -0.613904,0.5084 -0.321271,0.29888 -0.645739,0.51203 -1.102891,0.72451 -0.356238,0.16559 -1.013532,0.47119 -1.460652,0.67913 -1.532182,0.71256 -2.352316,1.20864 -3.145749,1.90279 -0.272162,0.23811 -0.616024,0.4963 -0.76414,0.57376 -0.261956,0.13701 -0.290889,0.13774 -1.060365,0.0269 -0.435085,-0.0627 -2.286179,-0.36443 -4.113542,-0.67062 -1.827361,-0.30618 -3.974601,-0.63875 -4.771643,-0.73904 -2.312356,-0.29096 -2.239197,-0.25917 -2.914161,-1.26607 -0.23819,-0.35533 -0.524199,-0.76029 -0.63558,-0.89992 -0.111378,-0.13962 -0.356608,-0.63343 -0.544955,-1.09735 -0.90209,-2.221962 -1.289524,-4.508209 -1.135644,-6.701437 0.126896,-1.808647 0.732774,-4.904853 1.122967,-5.738674 0.363538,-0.776863 1.080308,-1.372208 1.778054,-1.476842 0.636389,-0.09543 3.047154,0.326695 3.863029,0.676421 0.515965,0.221168 1.46558,0.949787 2.001635,1.535812 0.672593,0.735291 1.283465,1.605298 1.874528,2.66972 0.271055,0.488131 0.608777,1.072204 0.750495,1.297942 0.141716,0.225736 0.676666,1.217752 1.188774,2.204479 1.342559,2.586826 2.067287,3.608301 3.133282,4.416234 0.536654,0.406739 1.4242,0.831593 1.994541,0.954754 0.520184,0.112331 4.861538,0.107101 5.598741,-0.0067 0.486855,-0.07519 0.555652,-0.120107 0.870757,-0.568571 0.106758,-0.151941 0.108208,-0.15133 0.282895,0.119413 0.144838,0.224475 0.221812,0.275964 0.439553,0.294014 0.205634,0.01704 0.30324,-0.01739 0.441689,-0.155843 0.154997,-0.154994 0.177722,-0.239203 0.177722,-0.658531 0,-0.70527 -0.1687,-2.043885 -0.56384,-4.473988 -0.390948,-2.404338 -0.47162,-3.031728 -0.355621,-2.765642 0.204071,0.4681 0.812183,3.328985 1.337818,6.293822 0.154472,0.871296 0.322353,1.625522 0.373069,1.676057 0.05072,0.05054 0.505753,0.157608 1.011194,0.237938 0.505441,0.08034 1.157567,0.212612 1.449166,0.293952 0.291602,0.0813 0.705143,0.14819 0.918984,0.14855 0.810925,0.001 2.318395,-0.522606 3.61475,-1.256431 0.66856,-0.378451 2.797448,-1.855732 3.772461,-2.617792 0.529128,-0.41356 1.992999,-1.169705 2.862985,-1.478839 1.835798,-0.652318 4.458133,-1.009985 5.526953,-0.753835 0.86337,0.206918 2.02317,0.854862 2.59538,1.449967 0.23662,0.246085 0.23966,0.257237 0.19936,0.730496 -0.12233,1.436432 -1.59412,4.208954 -3.0337,5.714774 -0.66225,0.69273 -1.03359,0.96235 -1.47068,1.06782 -0.13608,0.0328 -1.790248,0.0598 -3.67593,0.0599 -2.969446,1.9e-4 -3.556296,0.0181 -4.382843,0.13318 -0.63719,0.0888 -1.412416,0.13574 -2.332804,0.14138 -1.351022,0.008 -1.386408,0.005 -1.776851,-0.17833 -0.578426,-0.2712 -1.348974,-0.8095 -2.075842,-1.45017 -1.25299,-1.10441 -1.661207,-1.39074 -1.661207,-1.16521 0,0.18508 1.185064,1.6725 1.977984,2.48266 0.660484,0.67484 1.247781,1.06471 1.967121,1.30584 0.299077,0.10025 0.5906,0.21188 0.64783,0.24806 0.175692,0.11107 -0.09763,0.16859 -0.567668,0.11946 -1.269159,-0.13266 -2.133542,-0.74434 -3.710745,-2.62594 -0.766091,-0.91394 -1.203138,-1.27075 -2.118533,-1.72963 -0.389252,-0.19512 -0.701484,-0.29825 -0.996293,-0.32906 l -0.429371,-0.0449 -0.0459,0.48608 c -0.06222,0.65893 -0.04994,5.40148 0.0144,5.56499 0.0442,0.11232 0.08051,0.0891 0.260122,-0.16645 0.114813,-0.16336 0.383711,-0.65155 0.597552,-1.08488 0.213839,-0.43333 0.420183,-0.78787 0.458538,-0.78787 0.117896,0 0.231407,0.3182 0.42879,1.20201 0.360507,1.61423 0.571459,1.98743 1.974742,3.49355 0.610275,0.655 0.882944,1.00909 1.072679,1.393 0.235579,0.47666 0.256955,0.57382 0.288905,1.31317 0.0395,0.91413 -0.07358,1.65393 -0.418786,2.73987 -0.546287,1.71848 -1.081132,2.20245 -2.417609,2.18761 -0.315872,-0.004 -0.682687,-0.0375 -0.815145,-0.0756 z"
       id="path2742" /></g></svg>
